<?xml version="1.0" encoding="UTF-8" standalone="no"?>
<!-- Created with Inkscape (http://www.inkscape.org/) -->

<svg
   xmlns:dc="http://purl.org/dc/elements/1.1/"
   xmlns:cc="http://creativecommons.org/ns#"
   xmlns:rdf="http://www.w3.org/1999/02/22-rdf-syntax-ns#"
   xmlns:svg="http://www.w3.org/2000/svg"
   xmlns="http://www.w3.org/2000/svg"
   version="1.1"
   width="100%"
   height="100%"
   viewBox="0 0 582.874 582.874"
   id="Capa_1"
   xml:space="preserve"><metadata
   id="metadata13"><rdf:RDF><cc:Work
       rdf:about=""><dc:format>image/svg+xml</dc:format><dc:type
         rdf:resource="http://purl.org/dc/dcmitype/StillImage" /><dc:title></dc:title></cc:Work></rdf:RDF></metadata><defs
   id="defs11"><filter
     color-interpolation-filters="sRGB"
     id="filter2990"><feFlood
       id="feFlood2992"
       result="flood"
       flood-color="rgb(0,0,0)"
       flood-opacity="0.5" /><feComposite
       in2="SourceGraphic"
       operator="in"
       in="flood"
       result="composite1"
       id="feComposite2994" /><feGaussianBlur
       id="feGaussianBlur2996"
       result="blur"
       stdDeviation="4" /><feOffset
       id="feOffset2998"
       result="offset"
       dy="3"
       dx="3" /><feComposite
       in2="offset"
       operator="over"
       in="SourceGraphic"
       result="composite2"
       id="feComposite3000" /></filter></defs>
<g
   id="g3"
   style="fill:#ffffff;filter:url(#filter2990)">
	<g
   id="g5"
   style="fill:#ffffff">
		<path
   d="m 175.838,287.429 c -3.207,-0.551 -6.214,-1.159 -9.18,-1.881 -8.784,-2.171 -17.446,-3.35 -21.469,0.114 -0.27,0.229 -0.498,0.62 -0.698,1.122 -0.273,0.681 -1.195,1.726 -2.089,2.411 -8.592,6.557 -11.681,20.31 -16.255,32.623 -5.194,13.921 -12.485,28.707 -17.548,36.153 -4.762,6.997 -8.495,5.899 -9.653,11.473 -0.102,0.485 -0.126,0.991 -0.09,1.514 0.057,0.841 -0.673,1.567 -1.799,1.611 -6.936,0.273 -12.423,-0.244 -15.406,3.807 -0.669,0.906 -1.909,1.942 -3.002,2.204 -3.579,0.86 -8.536,2.651 -13.15,8.478 -7.246,9.144 -3.966,20.906 -2.208,20.931 1.759,0.017 -0.555,-5.691 5.618,-12.142 3.615,-3.767 9.004,-3.351 13.631,-5.398 1.032,-0.457 2.697,-1.085 3.803,-1.306 4.782,-0.95 12.375,-3.239 18.458,-6.324 1.004,-0.51 2.587,-0.477 3.636,-0.073 2.003,0.771 4.047,0.91 5.826,0.054 8.192,-3.958 14.831,-30.449 18.572,-44.224 4.182,-15.406 6.581,-25.753 13.387,-33.819 0.726,-0.86 2.003,-0.853 2.954,-0.249 0.689,0.441 1.464,0.792 2.358,0.996 6.002,1.396 15.37,0.232 24.668,-1.118 1.114,-0.163 2.048,0.616 2.077,1.746 0.453,16.202 0.922,32.143 0.334,44.48 -0.661,13.811 -0.481,31.604 1.269,49.935 0.106,1.122 -0.71,2.008 -1.836,1.979 -7.275,-0.192 -13.142,-0.555 -18.936,-1.351 -8.956,-1.244 -17.711,-1.521 -21.351,2.35 -0.445,0.474 -1.053,1.094 -1.424,2.081 -0.396,1.053 -0.877,2.737 -1.493,3.685 -13.301,20.384 -17.1,65.394 -18.993,79.715 -1.934,14.721 -5.157,28.237 -8.429,36.639 -3.068,7.87 -6.63,8.919 -7.34,14.153 -0.155,1.057 0.106,2.166 0.669,3.272 0.51,1.003 0.2,1.848 -0.918,1.982 -7.312,0.886 -13.166,0.547 -15.969,4.978 -0.604,0.951 -1.771,2.072 -2.844,2.411 -3.509,1.11 -8.335,3.244 -12.53,9.385 -6.573,9.633 -2.464,21.143 -0.714,21.048 1.747,-0.114 -0.967,-5.646 4.749,-12.501 3.33,-4.031 8.744,-3.99 13.211,-6.369 0.995,-0.53 2.611,-1.276 3.7,-1.574 5.729,-1.555 15.517,-5.382 21.559,-9.947 0.897,-0.682 2.493,-1.122 3.615,-1.236 1.391,-0.143 2.583,-0.701 3.386,-1.856 7.267,-10.506 5.08,-30.318 7.246,-44.419 3.33,-21.689 8.976,-63.072 16.854,-81.567 0.441,-1.036 1.498,-1.473 2.387,-1.179 0.522,0.171 1.073,0.298 1.652,0.375 8.238,1.028 21.991,-3.158 33.681,-6.006 1.093,-0.265 2.122,0.429 2.289,1.543 0.922,5.989 2.023,11.917 3.366,17.658 0.84,3.569 2.419,5.92 3.59,7.262 0.743,0.849 1.624,2.306 1.84,3.411 0.987,5.071 3.949,18.47 8.768,24.831 0.934,1.224 2.011,1.688 2.921,1.828 1.114,0.171 2.334,0.693 2.75,1.741 1.91,4.839 7.373,17.932 14.3,27.94 2.032,2.945 3.893,4.275 5.675,4.553 1.114,0.176 2.489,0.678 3.081,1.637 4.19,6.797 10.6,15.948 15.308,18.604 2.873,1.6 5.528,1.787 7.254,1.661 1.122,-0.082 2.48,0.436 3.08,1.391 5.855,9.311 10.841,14.9 18.401,14.268 1.122,-0.094 2.448,0.511 3.228,1.326 2.921,3.056 8.87,5.349 13.741,6.148 1.11,0.184 2.938,0.184 4.052,0 4.871,-0.8 10.82,-3.088 13.745,-6.148 0.779,-0.815 2.105,-1.42 3.228,-1.326 7.561,0.633 12.546,-4.957 18.4,-14.268 0.601,-0.954 1.959,-1.473 3.081,-1.391 1.726,0.126 4.386,-0.062 7.254,-1.661 4.708,-2.656 11.118,-11.812 15.309,-18.604 0.591,-0.959 1.97,-1.461 3.08,-1.637 1.783,-0.281 3.64,-1.607 5.675,-4.553 6.928,-10.009 12.392,-23.102 14.301,-27.939 0.412,-1.049 1.636,-1.571 2.75,-1.742 0.91,-0.14 1.991,-0.604 2.921,-1.828 4.823,-6.361 7.785,-19.76 8.769,-24.831 0.216,-1.105 1.102,-2.562 1.84,-3.411 1.171,-1.342 2.746,-3.692 3.59,-7.262 1.343,-5.741 2.448,-11.665 3.366,-17.658 0.172,-1.114 1.195,-1.808 2.289,-1.543 11.689,2.853 25.447,7.034 33.681,6.006 0.579,-0.073 1.13,-0.2 1.652,-0.375 0.89,-0.294 1.941,0.143 2.387,1.179 7.878,18.491 13.525,59.878 16.854,81.567 2.166,14.101 -0.024,33.913 7.246,44.419 0.804,1.155 1.995,1.714 3.387,1.856 1.121,0.114 2.717,0.559 3.618,1.24 6.043,4.565 15.822,8.389 21.551,9.943 1.085,0.298 2.709,1.044 3.705,1.574 4.467,2.383 9.882,2.338 13.211,6.369 5.716,6.854 3.003,12.392 4.749,12.501 1.75,0.094 5.858,-11.415 -0.714,-21.048 -4.194,-6.145 -9.021,-8.279 -12.53,-9.385 -1.073,-0.338 -2.239,-1.456 -2.844,-2.407 -2.799,-4.435 -8.661,-4.092 -15.973,-4.981 -1.118,-0.135 -1.429,-0.979 -0.918,-1.982 0.562,-1.106 0.824,-2.216 0.669,-3.272 -0.71,-5.234 -4.271,-6.283 -7.34,-14.153 -3.276,-8.401 -6.495,-21.918 -8.43,-36.639 -1.893,-14.325 -5.695,-59.331 -18.992,-79.715 -0.616,-0.942 -1.098,-2.628 -1.493,-3.685 -0.371,-0.991 -0.979,-1.607 -1.424,-2.081 -3.64,-3.871 -12.396,-3.594 -21.351,-2.35 -5.794,0.796 -11.661,1.158 -18.936,1.351 -1.126,0.028 -1.946,-0.856 -1.836,-1.979 1.75,-18.332 1.93,-36.129 1.269,-49.936 -0.587,-12.338 -0.118,-28.278 0.335,-44.48 0.032,-1.126 0.963,-1.905 2.076,-1.746 9.303,1.354 18.666,2.518 24.668,1.118 0.894,-0.204 1.669,-0.555 2.358,-0.995 0.95,-0.604 2.228,-0.612 2.954,0.248 6.81,8.066 9.208,18.413 13.387,33.819 3.741,13.774 10.379,40.266 18.571,44.224 1.779,0.856 3.823,0.718 5.827,-0.054 1.052,-0.403 2.627,-0.437 3.635,0.074 6.079,3.084 13.672,5.369 18.454,6.323 1.105,0.221 2.778,0.849 3.811,1.306 4.627,2.049 10.017,1.637 13.631,5.398 6.174,6.45 3.86,12.158 5.618,12.142 1.759,-0.024 5.039,-11.787 -2.207,-20.931 -4.614,-5.826 -9.571,-7.617 -13.149,-8.478 -1.094,-0.266 -2.338,-1.298 -3.003,-2.208 -2.982,-4.051 -8.471,-3.537 -15.406,-3.807 -1.126,-0.045 -1.856,-0.771 -1.8,-1.611 0.037,-0.522 0.013,-1.028 -0.089,-1.514 -1.155,-5.577 -4.893,-4.479 -9.653,-11.473 -5.063,-7.446 -12.354,-22.232 -17.549,-36.153 -4.573,-12.313 -7.666,-26.066 -16.255,-32.623 -0.893,-0.686 -1.815,-1.73 -2.089,-2.411 -0.199,-0.502 -0.428,-0.894 -0.697,-1.122 -4.022,-3.464 -12.685,-2.285 -21.469,-0.114 -2.971,0.722 -5.974,1.33 -9.181,1.881 -1.109,0.191 -1.995,-0.575 -1.982,-1.701 0.09,-6.704 0.102,-13.195 -0.065,-19.217 0.588,-9.511 8.854,-14.685 8.286,-23.477 -0.489,-7.699 -21.31,-24.007 -31.281,-26.944 -10.448,-3.076 -13.06,-5.949 -16.956,-9.258 -0.861,-0.73 -0.792,-1.767 0.176,-2.342 5.137,-3.064 9.563,-5.504 14.153,-7.63 8.213,-3.798 15.569,-9.367 17.405,-14.341 0.061,-0.18 0.114,-0.367 0.159,-0.559 0.073,-0.311 0.999,-0.376 2.093,-0.103 3.501,0.873 7.834,2.207 12.403,4.227 10.963,4.827 37.409,15.876 40.376,15.027 2.097,-0.596 3.68,-2.171 4.749,-4.174 0.53,-0.996 1.726,-1.812 2.852,-1.808 8.274,0.032 18.756,-2.51 23.272,-4.276 5.328,-2.117 11.143,-2.432 15.847,-1.167 4.708,1.273 8.299,4.117 9.139,2.934 0.829,-1.179 -6.589,-12.329 -12.962,-14.182 -5.223,-1.526 -9.237,-0.804 -12.403,0.118 -1.081,0.314 -2.672,0.024 -3.696,-0.44 -5.577,-2.529 -11.053,2.623 -19.526,6.186 -1.041,0.437 -2.15,0.114 -2.591,-0.592 -0.27,-0.433 -0.58,-0.832 -0.938,-1.18 -2.885,-2.737 -8.585,-0.832 -16.41,-0.995 -9.013,-0.196 -17.887,-2.647 -25.283,-5.521 -6.626,-2.574 -10.764,-4.74 -20.633,-5.234 -1.126,-0.058 -2.828,-0.559 -3.917,-0.849 -2.077,-0.555 -4.427,-0.229 -6.879,1.555 -6.173,4.472 -18.177,15.847 -30.054,25.847 -0.86,0.727 -2.415,0.975 -3.472,0.588 -9.612,-3.518 -16.646,-4.301 -19.608,-11.408 -2.726,-6.564 -6.679,-7.98 -7.226,-9.393 -1.069,-2.896 -2.272,-8.307 -1.905,-14.442 0.122,-2.057 -0.526,-3.452 -1.493,-4.338 -0.828,-0.763 -1.543,-1.905 -1.27,-2.994 10.147,-40.009 40.56,-76.296 43.897,-81.49 1.717,-2.688 2.354,-5.479 2.586,-7.299 0.144,-1.118 0.979,-2.387 2.004,-2.848 1.57,-0.706 3.713,-1.726 4.721,-2.473 4.063,-2.95 10.448,-12.521 13.35,-17.038 1.306,-2.036 3.529,-4.178 3.745,-6.418 0.106,-1.122 0.543,-1.995 1.566,-2.46 2.388,-1.081 5.488,-3.688 7.304,-5.357 6.295,-5.806 17.055,-14.271 21.09,-20.261 4.01,-5.937 -1.604,-11.526 -7.699,-9.132 -5.056,1.971 -20.253,17.789 -23.436,21.257 -2.061,2.257 -3.138,5.827 -3.64,8.05 -0.249,1.098 -1.265,1.751 -2.391,1.742 -1.171,-0.008 -2.685,0.217 -4.101,1.155 -2.855,1.901 -12.533,14.59 -14.916,18.226 -2.008,3.056 -3.04,4.794 -3.012,8.09 0.013,1.126 -0.783,2.184 -1.815,2.636 -7.593,3.313 -15.401,17.769 -23.432,34.272 -9.629,19.771 -19.457,42.979 -21.827,61.931 0,0 -0.045,0.473 -0.099,1.057 -0.053,0.583 -0.677,1.934 -1.787,2.138 -1.162,0.212 -2.264,-0.747 -2.599,-3.717 -0.498,-4.325 -6.744,-8.907 -15.182,-8.666 -0.106,0.004 -0.208,0.032 -0.314,0.036 -0.106,-0.004 -0.204,-0.032 -0.314,-0.036 -8.438,-0.241 -14.684,4.341 -15.182,8.666 -0.334,2.97 -1.436,3.929 -2.599,3.717 -1.11,-0.204 -1.734,-1.555 -1.787,-2.138 l -0.098,-1.057 C 269.054,138.977 259.226,115.766 249.597,95.994 241.572,79.49 233.759,65.031 226.165,61.722 c -1.032,-0.448 -1.824,-1.505 -1.815,-2.636 0.033,-3.296 -1,-5.034 -3.011,-8.09 -2.382,-3.636 -12.06,-16.324 -14.916,-18.226 -1.412,-0.935 -2.93,-1.163 -4.101,-1.155 -1.126,0.009 -2.142,-0.645 -2.391,-1.742 -0.501,-2.223 -1.579,-5.793 -3.639,-8.05 -3.178,-3.468 -18.376,-19.286 -23.436,-21.257 -6.096,-2.395 -11.709,3.199 -7.699,9.132 4.035,5.989 14.798,14.455 21.089,20.261 1.812,1.669 4.917,4.276 7.303,5.357 1.028,0.465 1.46,1.338 1.566,2.46 0.212,2.24 2.44,4.382 3.746,6.418 2.901,4.521 9.286,14.088 13.35,17.038 1.012,0.742 3.154,1.767 4.721,2.473 1.028,0.461 1.86,1.729 2.003,2.848 0.232,1.819 0.869,4.614 2.587,7.299 3.337,5.194 33.75,41.485 43.896,81.49 0.277,1.094 -0.437,2.235 -1.269,2.994 -0.967,0.89 -1.616,2.285 -1.493,4.338 0.367,6.136 -0.836,11.546 -1.905,14.442 -0.547,1.412 -4.5,2.828 -7.226,9.393 -2.966,7.107 -9.996,7.891 -19.608,11.407 -1.057,0.388 -2.611,0.14 -3.472,-0.587 -11.873,-10 -23.88,-21.375 -30.053,-25.847 -2.452,-1.779 -4.807,-2.109 -6.879,-1.555 -1.089,0.29 -2.791,0.791 -3.917,0.849 -9.87,0.493 -14.007,2.66 -20.632,5.234 -7.397,2.872 -16.271,5.329 -25.284,5.521 -7.821,0.167 -13.521,-1.738 -16.41,0.995 -0.355,0.347 -0.665,0.743 -0.938,1.18 -0.44,0.706 -1.55,1.028 -2.586,0.592 -8.479,-3.562 -13.954,-8.715 -19.531,-6.189 -1.028,0.465 -2.615,0.755 -3.696,0.44 -3.166,-0.922 -7.181,-1.645 -12.403,-0.118 -6.373,1.853 -13.786,13.003 -12.962,14.182 0.836,1.188 4.431,-1.656 9.139,-2.934 4.704,-1.261 10.518,-0.95 15.847,1.167 4.517,1.767 14.998,4.309 23.272,4.276 1.126,-0.005 2.321,0.812 2.852,1.807 1.073,2.008 2.652,3.578 4.75,4.174 2.966,0.849 29.417,-10.199 40.375,-15.026 4.57,-2.023 8.902,-3.354 12.403,-4.227 1.093,-0.273 2.023,-0.208 2.093,0.102 0.045,0.192 0.098,0.376 0.159,0.56 1.836,4.974 9.192,10.542 17.405,14.341 4.59,2.126 9.017,4.565 14.154,7.63 0.967,0.579 1.036,1.615 0.175,2.342 -3.896,3.309 -6.508,6.181 -16.957,9.258 -9.967,2.938 -30.792,19.245 -31.281,26.944 -0.567,8.792 7.699,13.966 8.287,23.476 -0.167,6.022 -0.151,12.518 -0.065,19.217 0.075,1.134 -0.81,1.9 -1.924,1.709 z"
   id="path7"
   style="fill:#ffffff" />
	</g>
</g>
</svg>