<svg xmlns="http://www.w3.org/2000/svg" viewBox="0 0 300 300"><defs><filter id="a" width="150%" height="150%"><feFlood result="f" flood-color="#000" flood-opacity="0.5"/><feComposite in2="SourceGraphic" operator="in" in="f"/><feGaussianBlur stdDeviation="20"/><feOffset result="o" dy="20" dx="20"/><feComposite in2="o" operator="over" in="SourceGraphic"/></filter></defs><path d="M160.9 229.04c-3.2-.55-6.22-1.16-9.18-1.88-8.8-2.17-17.45-3.35-21.47.1-.27.24-.5.63-.7 1.13-.27.6-1.2 1.7-2.08 2.4-8.6 6.5-11.68 20.3-16.25 32.6-5.2 13.9-12.48 28.7-17.55 36.1-4.76 7-8.5 5.9-9.65 11.5-.1.5-.12 1-.1 1.5.07.8-.66 1.5-1.8 1.6-6.92.3-12.4-.3-15.4 3.8-.65.9-1.9 1.9-3 2.2-3.57.8-8.52 2.6-13.14 8.5-7.24 9.1-3.96 20.9-2.2 20.9 1.75 0-.56-5.7 5.6-12.2 3.63-3.8 9.02-3.4 13.64-5.4 1.04-.5 2.7-1.1 3.8-1.3 4.8-1 12.4-3.3 18.47-6.3 1-.5 2.5-.5 3.6-.1 2 .7 4 .9 5.8 0 8.2-4 14.8-30.5 18.5-44.3 4.2-15.4 6.6-25.8 13.4-33.8.7-.9 2-.9 2.9-.3.7.4 1.4.8 2.3 1 6 1.4 15.3.2 24.6-1.1 1.1-.2 2 .6 2.1 1.7.4 16.2.9 32.1.3 44.5-.7 13.8-.5 31.6 1.3 49.9.1 1.1-.7 2-1.9 2-7.3-.2-13.2-.6-19-1.4-9-1.3-17.7-1.6-21.4 2.3-.5.4-1.1 1.1-1.5 2-.4 1.1-.9 2.8-1.5 3.7-13.3 20.4-17.1 65.4-19 79.7-2 14.7-5.2 28.3-8.5 36.7-3.1 7.8-6.7 8.9-7.4 14.1-.2 1.1.1 2.2.7 3.3.5 1 .2 1.8-.9 2-7.3.9-13.2.5-16 5-.6.9-1.8 2-2.9 2.4-3.5 1.1-8.3 3.2-12.5 9.4-6.6 9.6-2.5 21.1-.7 21 1.7-.1-1-5.6 4.7-12.5 3.3-4 8.7-4 13.2-6.4 1-.5 2.6-1.3 3.7-1.6 5.7-1.6 15.5-5.4 21.5-10 .9-.7 2.5-1.1 3.6-1.2 1.4-.2 2.6-.7 3.4-1.9 7.3-10.5 5.1-30.3 7.2-44.4 3.3-21.7 8.9-63.1 16.8-81.6.4-1.1 1.5-1.5 2.4-1.2.5.2 1 .3 1.6.4 8.2 1 21.9-3.2 33.6-6 1.1-.3 2.1.4 2.3 1.5.9 6 2 11.9 3.3 17.6.8 3.6 2.4 5.9 3.6 7.3.7.9 1.6 2.3 1.8 3.4 1 5.1 4 18.5 8.8 24.9.9 1.2 2 1.7 2.9 1.8 1.1.2 2.32.7 2.8 1.7 1.9 4.8 7.3 17.9 14.3 27.9 2 2.9 3.9 4.2 5.6 4.5 1.1.2 2.5.7 3.1 1.6 4.2 6.8 10.6 15.9 15.3 18.6 2.9 1.6 5.6 1.8 7.3 1.7 1.1-.1 2.5.4 3.1 1.4 5.8 9.3 10.8 14.9 18.4 14.2 1.1-.1 2.4.5 3.2 1.3 2.9 3.1 8.9 5.4 13.7 6.2 1.1.2 2.9.2 4 0 4.9-.8 10.8-3.1 13.75-6.2.8-.8 2.1-1.4 3.23-1.3 7.53.6 12.5-5 18.4-14.3.6-.9 1.92-1.5 3.1-1.4 1.7.2 4.4 0 7.2-1.6 4.7-2.7 11.16-11.8 15.3-18.6.6-1 2-1.5 3.1-1.7 1.8-.3 3.7-1.6 5.7-4.57 6.95-10 12.4-23.1 14.3-28 .44-1.06 1.66-1.58 2.8-1.75.9-.1 2-.6 2.9-1.8 4.8-6.4 7.76-19.8 8.75-24.88.2-1.1 1.1-2.57 1.9-3.4 1.2-1.36 2.74-3.7 3.6-7.28 1.3-5.78 2.4-11.7 3.35-17.7.2-1.1 1.2-1.8 2.3-1.54 11.7 2.9 25.47 7.1 33.7 6 .6 0 1.15-.2 1.67-.3.9-.3 2 .1 2.4 1.2 7.9 18.5 13.5 59.9 16.9 81.6 2.1 14.1-.1 33.9 7.2 44.4.8 1.1 2 1.7 3.4 1.8 1.1.1 2.7.5 3.6 1.2 6 4.6 15.8 8.4 21.5 9.98 1.1.3 2.75 1 3.7 1.54 4.5 2.4 9.9 2.37 13.25 6.4 5.7 6.9 3 12.4 4.7 12.5 1.8.1 5.9-11.4-.7-21-4.2-6.15-9-8.3-12.5-9.4-1.1-.34-2.3-1.46-2.9-2.4-2.8-4.44-8.7-4.1-16-5-1.1-.1-1.4-1-.9-2 .5-1.1.8-2.2.6-3.2-.7-5.26-4.25-6.3-7.3-14.2-3.3-8.4-6.5-21.9-8.45-36.63-1.9-14.3-5.7-59.3-19-79.7-.6-.9-1.1-2.6-1.5-3.7-.3-1-.98-1.6-1.4-2.1-3.6-3.8-12.4-3.6-21.3-2.3-5.8.8-11.7 1.1-19 1.3-1.1.1-1.95-.8-1.8-1.94 1.72-18.33 1.9-36.1 1.24-49.93-.6-12.35-.1-28.3.3-44.5.1-1.1 1-1.9 2.1-1.74 9.3 1.4 18.7 2.54 24.7 1.14.9-.2 1.6-.6 2.3-1 1-.6 2.26-.6 3 .2 6.8 8 9.2 18.4 13.4 33.8 3.73 13.8 10.4 40.26 18.56 44.2 1.8.9 3.9.75 5.9 0 1.1-.4 2.7-.4 3.7.1 6.1 3.1 13.7 5.36 18.5 6.3 1.1.2 2.8.8 3.8 1.3 4.7 2.03 10 1.6 13.7 5.4 6.2 6.43 3.9 12.14 5.6 12.1 1.8 0 5.1-11.74-2.2-20.9-4.6-5.8-9.5-7.6-13.1-8.44-1.1-.2-2.4-1.3-3-2.2-3-4-8.5-3.5-15.4-3.8-1.18 0-1.9-.7-1.8-1.6 0-.5 0-1-.1-1.5-1.2-5.6-4.9-4.5-9.7-11.5-5.1-7.4-12.38-22.2-17.58-36.1-4.6-12.3-7.68-26.1-16.27-32.6-.9-.62-1.8-1.7-2.1-2.4-.2-.5-.4-.9-.7-1.1-4-3.42-12.7-2.3-21.4-.1-3 .7-6 1.3-9.2 1.9-1.1.2-2-.6-1.94-1.7.1-6.7.1-13.2 0-19.23.6-9.5 8.84-14.7 8.3-23.5-.5-7.7-21.3-24-31.3-26.98-10.45-3.1-13.06-5.98-16.95-9.3-.9-.7-.8-1.7.2-2.3 5.1-3 9.5-5.5 14.1-7.6 8.2-3.8 15.6-9.33 17.4-14.3l.2-.6c.06-.3 1-.4 2.1-.1 3.5.9 7.8 2.2 12.4 4.2 10.95 4.8 37.4 15.85 40.36 15 2.1-.6 3.7-2.2 4.7-4.2.5-1 1.7-1.8 2.83-1.8 8.3 0 18.7-2.5 23.3-4.3 5.3-2.1 11.1-2.4 15.8-1.2 4.7 1.3 8.3 4.1 9.14 2.9.8-1.1-6.6-12.3-13-14.1-5.2-1.5-9.24-.8-12.4.1-1.1.3-2.7.04-3.7-.4-5.6-2.5-11.06 2.66-19.5 6.2-1.1.46-2.2.1-2.6-.6-.3-.4-.6-.8-.96-1.15-2.9-2.8-8.6-.9-16.4-1-9-.2-17.9-2.7-25.3-5.6-6.6-2.56-10.74-4.7-20.6-5.2-1.16-.08-2.86-.58-3.95-.87-2.1-.6-4.46-.26-6.9 1.52-6.2 4.4-18.2 15.8-30.1 25.8-.87.7-2.4 1-3.5.6-9.6-3.5-16.6-4.3-19.6-11.4-2.7-6.6-6.7-8-7.2-9.4-1.1-2.9-2.3-8.3-1.9-14.42.1-2.1-.5-3.5-1.5-4.4-.8-.8-1.5-1.9-1.27-3 10.16-40 40.57-76.3 43.9-81.5 1.7-2.7 2.36-5.5 2.6-7.3.17-1.1 1-2.4 2-2.8 1.6-.7 3.7-1.7 4.75-2.5 4.1-3 10.5-12.55 13.4-17.1 1.3-2.03 3.6-4.17 3.8-6.4.1-1.14.58-2 1.6-2.47 2.4-1.1 5.5-3.7 7.3-5.4 6.3-5.8 17.07-14.3 21.1-20.3 4-5.93-1.6-11.5-7.7-9.13-5.1 1.9-20.3 17.7-23.5 21.2-2.1 2.3-3.12 5.84-3.62 8.06-.3 1.1-1.3 1.74-2.4 1.73-1.2 0-2.7.2-4.1 1.1-2.9 1.9-12.5 14.6-14.9 18.2-2 3.1-3.1 4.8-3 8.1 0 1.2-.8 2.2-1.9 2.7-7.6 3.3-15.4 17.8-23.44 34.3-9.6 19.8-19.5 43-21.8 62l-.1 1.1c0 .6-.65 2-1.76 2.2-1.2.2-2.3-.76-2.6-3.7-.5-4.36-6.7-8.9-15.2-8.7h-.3l-.3-.06c-8.4-.2-14.7 4.36-15.2 8.7-.3 2.9-1.4 3.9-2.6 3.7-1.1-.2-1.7-1.6-1.8-2.2l-.1-1.1c-2.3-19-12.2-42.2-21.8-61.93-8-16.46-15.8-30.9-23.4-34.2-1-.5-1.8-1.5-1.8-2.7 0-3.3-1-5-3-8.1-2.37-3.6-12.05-16.3-14.9-18.2-1.4-.9-2.9-1.1-4.1-1.1-1.1 0-2.1-.6-2.4-1.7-.5-2.2-1.57-5.8-3.6-8.06-3.2-3.5-18.4-19.3-23.4-21.3-6.1-2.4-11.7 3.2-7.7 9.1 4 6 14.8 14.47 21.1 20.27 1.8 1.7 4.9 4.3 7.3 5.35 1 .5 1.4 1.4 1.5 2.5.2 2.3 2.44 4.4 3.74 6.4 3 4.7 9.4 14.3 13.5 17.2 1 .7 3.1 1.78 4.7 2.48 1 .4 1.9 1.7 2 2.8.2 1.8.9 4.6 2.6 7.3 3.3 5.2 33.7 41.5 43.9 81.5.3 1.1-.4 2.2-1.3 3-1 .9-1.6 2.3-1.5 4.4.32 6.15-.88 11.56-1.9 14.45-.6 1.4-4.5 2.8-7.2 9.4-3 7.1-10 7.9-19.6 11.4-1.1.4-2.6.13-3.5-.6-11.9-10-23.9-21.38-30.1-25.8-2.44-1.8-4.8-2.1-6.9-1.6-1.1.3-2.8.8-3.9.8-9.86.5-14 2.65-20.6 5.23-7.4 2.9-16.3 5.3-25.3 5.5-7.8.2-13.5-1.7-16.4 1-.37.35-.7.75-.96 1.2-.5.7-1.6 1-2.6.6-8.5-3.6-14-8.74-19.52-6.2-1 .45-2.6.74-3.7.4-3.17-.9-7.2-1.6-12.4-.1-6.37 1.9-13.8 13-12.96 14.2.8 1.2 4.4-1.6 9.1-2.9 4.7-1.3 10.5-1 15.9 1.17 4.5 1.8 15 4.3 23.3 4.3 1.1 0 2.3.8 2.88 1.8 1.06 2 2.64 3.6 4.74 4.2 3 .8 29.44-10.2 40.4-15 4.56-2 8.9-3.35 12.4-4.2 1.1-.25 2-.2 2.1.1l.14.6c1.87 5 9.2 10.5 17.4 14.3 4.6 2.1 9 4.6 14.2 7.6.96.5 1.03 1.6.2 2.3-3.9 3.3-6.5 6.2-16.9 9.26-9.97 2.9-30.8 19.2-31.3 26.9-.6 8.8 7.7 13.93 8.3 23.44-.2 6-.2 12.5-.1 19.2.1 1.2-.8 1.9-1.9 1.7z" transform="translate(40 0) scale(.42)" fill="#fff" filter="url(#a)"/></svg>