<?xml version="1.0" encoding="UTF-8" standalone="no"?>
<!-- Created with Inkscape (http://www.inkscape.org/) -->

<svg
   xmlns:dc="http://purl.org/dc/elements/1.1/"
   xmlns:cc="http://creativecommons.org/ns#"
   xmlns:rdf="http://www.w3.org/1999/02/22-rdf-syntax-ns#"
   xmlns:svg="http://www.w3.org/2000/svg"
   xmlns="http://www.w3.org/2000/svg"
   version="1.1"
   width="100%"
   height="100%"
   viewBox="0 0 401.601 401.6"
   id="Capa_1"
   xml:space="preserve"><metadata
   id="metadata10306"><rdf:RDF><cc:Work
       rdf:about=""><dc:format>image/svg+xml</dc:format><dc:type
         rdf:resource="http://purl.org/dc/dcmitype/StillImage" /><dc:title></dc:title></cc:Work></rdf:RDF></metadata><defs
   id="defs10304" />
<g
   id="g10252"
   style="fill:#ffffff">
	<g
   id="g10254"
   style="fill:#ffffff">
		<path
   d="m 116.682,229.329 c 11.286,0 22.195,-0.729 32.518,-2.086 V 114.094 c -10.322,-1.356 -21.232,-2.085 -32.518,-2.085 -64.441,0 -116.681,23.693 -116.681,52.921 v 11.477 c 0,29.227 52.24,52.922 116.681,52.922 z"
   id="path10256"
   style="fill:#ffffff" />
		<path
   d="m 116.682,288.411 c 11.286,0 22.195,-0.729 32.518,-2.084 v -33.166 c -10.325,1.356 -21.229,2.095 -32.518,2.095 -56.25,0 -103.199,-18.054 -114.227,-42.082 -1.606,3.5 -2.454,7.124 -2.454,10.839 v 11.477 c 0,29.228 52.24,52.921 116.681,52.921 z"
   id="path10258"
   style="fill:#ffffff" />
		<path
   d="m 149.199,314.823 v -2.578 c -10.325,1.356 -21.229,2.095 -32.518,2.095 C 60.431,314.34 13.482,296.286 2.454,272.258 0.848,275.757 0,279.381 0,283.096 v 11.477 c 0,29.229 52.24,52.922 116.681,52.922 12.887,0 25.282,-0.95 36.873,-2.7 -2.873,-5.877 -4.355,-12.075 -4.355,-18.496 v -11.476 z"
   id="path10260"
   style="fill:#ffffff" />
		<path
   d="m 284.92,22.379 c -64.441,0 -116.681,23.693 -116.681,52.921 v 11.477 c 0,29.228 52.24,52.921 116.681,52.921 64.44,0 116.681,-23.693 116.681,-52.921 V 75.3 c 0,-29.228 -52.241,-52.921 -116.681,-52.921 z"
   id="path10262"
   style="fill:#ffffff" />
		<path
   d="m 284.92,165.626 c -56.25,0 -103.199,-18.053 -114.227,-42.082 -1.606,3.499 -2.454,7.123 -2.454,10.839 v 11.477 c 0,29.228 52.24,52.921 116.681,52.921 64.44,0 116.681,-23.693 116.681,-52.921 v -11.477 c 0,-3.716 -0.848,-7.34 -2.454,-10.839 -11.028,24.029 -57.977,42.082 -114.227,42.082 z"
   id="path10264"
   style="fill:#ffffff" />
		<path
   d="m 284.92,224.71 c -56.25,0 -103.199,-18.054 -114.227,-42.082 -1.606,3.499 -2.454,7.123 -2.454,10.839 v 11.477 c 0,29.229 52.24,52.922 116.681,52.922 64.44,0 116.681,-23.693 116.681,-52.922 v -11.477 c 0,-3.716 -0.848,-7.34 -2.454,-10.839 -11.028,24.029 -57.977,42.082 -114.227,42.082 z"
   id="path10266"
   style="fill:#ffffff" />
		<path
   d="m 284.92,286.983 c -56.25,0 -103.199,-18.054 -114.227,-42.082 -1.606,3.5 -2.454,7.123 -2.454,10.838 v 11.478 c 0,29.228 52.24,52.921 116.681,52.921 64.44,0 116.681,-23.693 116.681,-52.921 v -11.478 c 0,-3.715 -0.848,-7.34 -2.454,-10.838 -11.028,24.027 -57.977,42.082 -114.227,42.082 z"
   id="path10268"
   style="fill:#ffffff" />
		<path
   d="m 284.92,346.066 c -56.25,0 -103.199,-18.053 -114.227,-42.081 -1.606,3.5 -2.454,7.125 -2.454,10.838 V 326.3 c 0,29.228 52.24,52.921 116.681,52.921 64.44,0 116.681,-23.693 116.681,-52.921 v -11.478 c 0,-3.715 -0.848,-7.34 -2.454,-10.838 -11.028,24.028 -57.977,42.082 -114.227,42.082 z"
   id="path10270"
   style="fill:#ffffff" />
	</g>
</g>
<g
   id="g10272">
</g>
<g
   id="g10274">
</g>
<g
   id="g10276">
</g>
<g
   id="g10278">
</g>
<g
   id="g10280">
</g>
<g
   id="g10282">
</g>
<g
   id="g10284">
</g>
<g
   id="g10286">
</g>
<g
   id="g10288">
</g>
<g
   id="g10290">
</g>
<g
   id="g10292">
</g>
<g
   id="g10294">
</g>
<g
   id="g10296">
</g>
<g
   id="g10298">
</g>
<g
   id="g10300">
</g>
</svg>