<svg xmlns="http://www.w3.org/2000/svg" viewBox="0 0 300 300"><defs><filter id="a" width="150%" height="150%"><feFlood result="f" flood-color="#000" flood-opacity="0.5"/><feComposite in2="SourceGraphic" operator="in" in="f"/><feGaussianBlur stdDeviation="20"/><feOffset result="o" dy="30" dx="30"/><feComposite in2="o" operator="over" in="SourceGraphic"/></filter></defs><path d="M170.27 206.8c-33.6 0-61.67-10.78-68.26-25.14-.9 2.1-1.4 4.26-1.4 6.48V195c0 17.47 31.2 31.63 69.8 31.63 38.5 0 69.8-14.16 69.8-31.63v-6.86c0-2.22-.5-4.4-1.46-6.48-6.6 14.36-34.64 25.15-68.26 25.15zm0-35.3c-33.6 0-61.67-10.8-68.26-25.14-.9 2.1-1.4 4.25-1.4 6.47v6.86c0 17.4 31.2 31.6 69.8 31.6 38.5 0 69.8-14.2 69.8-31.7v-6.9c0-2.2-.5-4.4-1.46-6.5-6.6 14.3-34.64 25.1-68.26 25.1zm0-37.2c-33.6 0-61.67-10.8-68.26-25.16-.9 2.1-1.4 4.26-1.4 6.48v6.86c0 17.46 31.2 31.62 69.8 31.62 38.5 0 69.8-14.16 69.8-31.62v-6.86c0-2.22-.5-4.4-1.46-6.48-6.6 14.36-34.64 25.15-68.26 25.15zm0-35.32c-33.6 0-61.67-10.8-68.26-25.15-.9 2.1-1.4 4.26-1.4 6.48v6.9c0 17.5 31.2 31.6 69.8 31.6 38.5 0 69.8-14.1 69.8-31.6v-6.9c0-2.2-.5-4.3-1.46-6.4C232 88.2 203.98 99 170.34 99zM69.73 137.05c6.74 0 13.26-.44 19.43-1.25V68.18c-6.17-.8-12.7-1.24-19.43-1.24C31.23 66.94 0 81.1 0 98.56v6.86c0 17.47 31.22 31.63 69.73 31.63zm0 35.3c6.74 0 13.26-.43 19.43-1.24v-19.8c-6.17.8-12.68 1.3-19.43 1.3-33.62 0-61.67-10.8-68.26-25.1C.5 129.6 0 131.7 0 133.9v6.86c0 17.47 31.22 31.63 69.73 31.63zm19.43 15.8v-1.55c-6.17.8-12.68 1.25-19.43 1.25-33.62 0-61.67-10.8-68.26-25.15C.5 164.8 0 166.96 0 169.18v6.86c0 17.47 31.22 31.63 69.73 31.63 7.7 0 15.1-.57 22.04-1.62-1.72-3.5-2.6-7.2-2.6-11.05v-6.86zm81.1-174.78c-38.5 0-69.72 14.16-69.72 31.63v6.86c0 17.47 31.22 31.62 69.73 31.62 38.5 0 69.73-14.15 69.73-31.62V45c0-17.47-31.22-31.63-69.73-31.63z" transform="translate(30 0) scale(0.9)" fill="#fff" filter="url(#a)"/></svg>