<?xml version="1.0" encoding="UTF-8" standalone="no"?>
<!-- Created with Inkscape (http://www.inkscape.org/) -->

<svg
   xmlns:dc="http://purl.org/dc/elements/1.1/"
   xmlns:cc="http://creativecommons.org/ns#"
   xmlns:rdf="http://www.w3.org/1999/02/22-rdf-syntax-ns#"
   xmlns:svg="http://www.w3.org/2000/svg"
   xmlns="http://www.w3.org/2000/svg"
   version="1.1"
   width="100%"
   height="100%"
   viewBox="0 0 29.978 29.978"
   id="Capa_1"
   xml:space="preserve"><metadata
   id="metadata10489"><rdf:RDF><cc:Work
       rdf:about=""><dc:format>image/svg+xml</dc:format><dc:type
         rdf:resource="http://purl.org/dc/dcmitype/StillImage" /><dc:title></dc:title></cc:Work></rdf:RDF></metadata><defs
   id="defs10487" />
<g
   id="g10419"
   style="fill:#ffffff">
	<path
   d="m 25.462,19.105 v 6.848 H 4.515 V 19.105 H 0.489 v 8.861 c 0,1.111 0.9,2.012 2.016,2.012 h 24.967 c 1.115,0 2.016,-0.9 2.016,-2.012 v -8.861 h -4.026 z"
   id="path10421"
   style="fill:#ffffff" />
	<path
   d="M 14.62,18.426 8.856,11.461 c 0,0 -0.877,-0.828 0.074,-0.828 0.951,0 3.248,0 3.248,0 0,0 0,-0.557 0,-1.416 0,-2.449 0,-6.906 0,-8.723 0,0 -0.129,-0.494 0.615,-0.494 0.75,0 4.035,0 4.572,0 0.536,0 0.524,0.416 0.524,0.416 0,1.762 0,6.373 0,8.742 0,0.768 0,1.266 0,1.266 0,0 1.842,0 2.998,0 1.154,0 0.285,0.867 0.285,0.867 0,0 -4.904,6.51 -5.588,7.193 -0.492,0.495 -0.964,-0.058 -0.964,-0.058 z"
   id="path10423"
   style="fill:#ffffff" />
	<g
   id="g10425"
   style="fill:#ffffff">
	</g>
	<g
   id="g10427"
   style="fill:#ffffff">
	</g>
	<g
   id="g10429"
   style="fill:#ffffff">
	</g>
	<g
   id="g10431"
   style="fill:#ffffff">
	</g>
	<g
   id="g10433"
   style="fill:#ffffff">
	</g>
	<g
   id="g10435"
   style="fill:#ffffff">
	</g>
	<g
   id="g10437"
   style="fill:#ffffff">
	</g>
	<g
   id="g10439"
   style="fill:#ffffff">
	</g>
	<g
   id="g10441"
   style="fill:#ffffff">
	</g>
	<g
   id="g10443"
   style="fill:#ffffff">
	</g>
	<g
   id="g10445"
   style="fill:#ffffff">
	</g>
	<g
   id="g10447"
   style="fill:#ffffff">
	</g>
	<g
   id="g10449"
   style="fill:#ffffff">
	</g>
	<g
   id="g10451"
   style="fill:#ffffff">
	</g>
	<g
   id="g10453"
   style="fill:#ffffff">
	</g>
</g>
<g
   id="g10455">
</g>
<g
   id="g10457">
</g>
<g
   id="g10459">
</g>
<g
   id="g10461">
</g>
<g
   id="g10463">
</g>
<g
   id="g10465">
</g>
<g
   id="g10467">
</g>
<g
   id="g10469">
</g>
<g
   id="g10471">
</g>
<g
   id="g10473">
</g>
<g
   id="g10475">
</g>
<g
   id="g10477">
</g>
<g
   id="g10479">
</g>
<g
   id="g10481">
</g>
<g
   id="g10483">
</g>
</svg>