<svg xmlns="http://www.w3.org/2000/svg" viewBox="0 0 300 300"><defs><filter id="a" width="150%" height="150%"><feFlood result="f" flood-color="#000" flood-opacity="0.5"/><feComposite in2="SourceGraphic" operator="in" in="f"/><feGaussianBlur stdDeviation="20"/><feOffset result="o" dy="20" dx="20"/><feComposite in2="o" operator="over" in="SourceGraphic"/></filter></defs><path d="M203.85 152.95v54.83H36.15v-54.83H3.92v70.94c0 8.9 7.2 16.1 16.14 16.1h199.88c8.93 0 16.14-7.2 16.14-16.1v-70.96h-32.23zm-86.8-5.43L70.9 91.76s-7.02-6.63.6-6.63h26V3.95S96.47 0 102.42 0h36.6c4.3 0 4.2 3.33 4.2 3.33v80.12h24c9.24 0 2.28 6.94 2.28 6.94s-39.26 52.1-44.73 57.57c-3.94 3.96-7.72-.46-7.72-.46z" transform="translate(38 0) scale(0.83)" fill="#fff" filter="url(#a)"/></svg>