<svg xmlns="http://www.w3.org/2000/svg" viewBox="0 0 300 300"><defs><filter id="a" width="150%" height="150%"><feFlood result="f" flood-color="#000" flood-opacity="0.5"/><feComposite in2="SourceGraphic" operator="in" in="f"/><feGaussianBlur stdDeviation="20"/><feOffset result="o" dy="30" dx="30"/><feComposite in2="o" operator="over" in="SourceGraphic"/></filter></defs><path d="m 238.34,117.54 -32.6,-27.1 V 29.72 c 0,-1.37 -0.44,-2.52 -1.34,-3.4 -0.9,-0.9 -2.03,-1.35 -3.42,-1.35 H 172.4 c -1.4,0 -2.53,0.45 -3.43,1.34 -0.9,0.9 -1.33,2.06 -1.33,3.4 V 58.78 L 131.3,28.38 c -3.16,-2.57 -6.93,-3.86 -11.3,-3.86 -4.36,0 -8.13,1.3 -11.3,3.88 L 1.64,117.54 c -1,0.8 -1.53,1.86 -1.63,3.2 -0.1,1.34 0.27,2.5 1.07,3.5 l 9.23,11.02 c 0.77,0.9 1.8,1.44 3.1,1.64 1.2,0.1 2.4,-0.25 3.6,-1.04 l 103,-85.9 103,85.9 c 0.8,0.7 1.84,1.03 3.13,1.03 h 0.45 c 1.28,-0.2 2.3,-0.78 3.1,-1.67 l 9.24,-11.02 c 0.8,-1 1.16,-2.15 1.05,-3.5 -0.1,-1.33 -0.65,-2.4 -1.64,-3.2 z M 120,63.06 34.4,133.62 c 0,0.1 -0.02,0.25 -0.07,0.45 -0.05,0.2 -0.07,0.34 -0.07,0.44 V 206 c 0,2.57 0.94,4.8 2.82,6.7 1.9,1.88 4.12,2.83 6.7,2.83 h 57.16 v -57.16 h 38.12 v 57.17 h 57.16 c 2.58,0 4.8,-0.94 6.7,-2.83 1.88,-1.86 2.83,-4.1 2.83,-6.7 v -71.43 c 0,-0.38 -0.06,-0.68 -0.15,-0.88 L 120,63.05 z" transform="translate(15 -16)" fill="#fff" filter="url(#a)"/></svg>