<?xml version="1.0" encoding="UTF-8" standalone="no"?>
<!-- Created with Inkscape (http://www.inkscape.org/) -->

<svg
   xmlns:dc="http://purl.org/dc/elements/1.1/"
   xmlns:cc="http://creativecommons.org/ns#"
   xmlns:rdf="http://www.w3.org/1999/02/22-rdf-syntax-ns#"
   xmlns:svg="http://www.w3.org/2000/svg"
   xmlns="http://www.w3.org/2000/svg"
   version="1.1"
   width="100%"
   height="100%"
   viewBox="0 0 485.211 485.21"
   id="Capa_1"
   xml:space="preserve"><metadata
   id="metadata10661"><rdf:RDF><cc:Work
       rdf:about=""><dc:format>image/svg+xml</dc:format><dc:type
         rdf:resource="http://purl.org/dc/dcmitype/StillImage" /><dc:title></dc:title></cc:Work></rdf:RDF></metadata><defs
   id="defs10659" />
<g
   id="g10623"
   style="fill:#ffffff">
	<path
   d="M 454.889,121.303 V 424.558 H 90.978 V 121.303 H 454.889 M 485.211,90.977 H 60.651 v 363.909 h 424.56 V 90.977 l 0,0 z M 121.304,363.905 h 303.257 l -60.653,-181.951 -90.976,121.302 -60.65,-60.651 -90.978,121.3 z m 30.324,-181.951 c -16.762,0 -30.324,13.565 -30.324,30.327 0,16.762 13.562,30.324 30.324,30.324 16.762,0 30.327,-13.562 30.327,-30.324 0,-16.762 -13.562,-30.327 -30.327,-30.327 z M 0,30.326 v 363.91 H 30.327 V 60.65 H 424.562 V 30.326 H 0 z"
   id="path10625"
   style="fill:#ffffff" />
</g>
<g
   id="g10627">
</g>
<g
   id="g10629">
</g>
<g
   id="g10631">
</g>
<g
   id="g10633">
</g>
<g
   id="g10635">
</g>
<g
   id="g10637">
</g>
<g
   id="g10639">
</g>
<g
   id="g10641">
</g>
<g
   id="g10643">
</g>
<g
   id="g10645">
</g>
<g
   id="g10647">
</g>
<g
   id="g10649">
</g>
<g
   id="g10651">
</g>
<g
   id="g10653">
</g>
<g
   id="g10655">
</g>
</svg>