<svg xmlns="http://www.w3.org/2000/svg" width="48" height="48"><rect width="48" height="48" x="0" y="0" fill="#3b5998" ry="4.55"/><path fill="#fff" d="M26.94 48l-.03-8.6v-8.7l-2.9-.06-2.9-.06v-6.63l2.9-.06 2.9-.1.1-3.5c.1-3.6.2-4.3.8-5.8 1-2.3 3.2-3.97 5.8-4.47.5-.1.9-.13 1.5-.16l1.1-.03 1.46.03c1.57.07 2.97.16 3.1.2.2.1.2.37.18 3.07l-.02 3-2.5.06c-2.74.1-3.2.2-3.83.97-.2.23-.4.6-.47.8-.05.2-.1 1.6-.1 3.06v2.7l3.27.04c2.4.04 3.3.1 3.3.23.04.1-.13 1.6-.36 3.34l-.43 3.18-2.9.06-2.86.08-.07 8.7-.03 8.6z"/></svg>