<svg xmlns="http://www.w3.org/2000/svg" width="48" height="48"><rect width="48" height="48" x="0" y="0" fill="#d34836" ry="4.55"/><path fill="#fff" d="M-288.72 57.8c0 3.1.64 5.4 1.93 6.95 1.3 1.53 3.2 2.3 5.5 2.3 1.3 0 2.6-.33 3.9-1 .2-.08.6-.35 1.3-.8.7-.45 1.2-.68 1.6-.68.5 0 .7.24.7.73 0 .5-.2 1.03-.7 1.64-.4.6-1 1.1-1.7 1.5-1.6.9-3.5 1.33-5.7 1.33h-.5c-1.4 0-2.7-.3-4-.86-2.4-1.1-4-2.9-4.9-5.5-.5-1.6-.8-3.2-.8-4.9v-1.2c0-1.5.3-3.1.8-4.7 1.1-3.1 2.9-5.3 5.5-6.5 1.5-.7 3.2-1 5.1-1 2 0 3.6.4 4.8 1.1.5.3.9.7 1.2 1.3.4.7.5 1.3.5 1.7 0 .9-.3 1.4-.9 1.4-.3 0-.8-.3-1.4-.9-1.3-1.2-2.8-1.8-4.5-1.8-1.22 0-2.32.3-3.3.8-2.6 1.5-3.92 4.6-3.92 9.4zm28.35 6.77c.48 0 2.02-4.08 4.6-12.25.62-1.95.95-3.36 1-4.24.05-.88.13-1.42.24-1.63.4-.86 1.24-1.3 2.48-1.3 1 0 1.5.45 1.5 1.32 0 .6-.23 1.25-.66 1.96-.5.7-1.6 3.5-3.3 8.37-1.8 4.88-3 8-3.6 9.4-.6 1.4-1.1 2.3-1.4 2.7-.4.37-.7.56-1.2.56h-.5c-.8 0-1.6-.95-2.4-2.83-.2-.27-1.1-2.98-2.9-8.12-1.8-5.1-3.2-8.4-4.2-9.9-.4-.5-.6-1.1-.6-1.6s.1-.9.4-1.1c.3-.2.9-.3 1.7-.3 1.2 0 2 .5 2.5 1.4.2.3.3.8.4 1.5s.4 1.8 1 3.4l1.1 3.5c1.93 6.3 3.1 9.4 3.4 9.4z"/><path fill="#fff" d="M20 41.24c2.13-.3 4.4-1.2 5.73-2.26 2.6-2.07 3.4-5.4 1.97-8.3-.6-1.2-1.7-2.4-3.4-3.7-3.15-2.4-3.5-3.33-1.83-4.9.4-.4 1.16-1.1 1.68-1.6 1.62-1.54 2.28-3.32 2.02-5.44-.2-1.6-.74-2.82-1.65-3.75-.25-.3-.46-.5-.46-.6 0-.1.4-.1.92-.1h.9l1.12-1c.6-.6 1.07-1.2 1.04-1.3-.04-.1-1.25-.2-5.97-.2-6.7 0-6.65 0-8.6.9-1.77.8-2.9 1.9-3.64 3.5-.48 1.1-.67 2-.67 3.2 0 1.3.2 2.2.76 3.3 1.07 2.3 3.2 3.7 6.26 4 .93.1 1.1.2 1.03.4-.4 1.1-.3 2.3.4 3.2l.4.5-1.2.1c-6.2.4-9.7 3-9.7 7.3 0 3.3 3.1 5.8 8 6.5 1 .16 4.2.17 5.2 0zm-4.2-2.14c-1.15-.26-2-.63-2.75-1.17-.82-.6-1.33-1.2-1.76-2.13-.3-.58-.4-.83-.4-1.73 0-.92 0-1.13.3-1.74.2-.43.6-1 1.1-1.43 2.2-2.18 6.4-2.68 9.4-1.13.9.5 2 1.56 2.4 2.5.2.57.3.8.3 1.92 0 1.1 0 1.3-.4 1.9-.7 1.3-2.2 2.3-4.1 2.8-1.2.2-3.5.3-4.4.1zm1.72-17.73c-.9-.25-1.45-.56-2.2-1.25-.9-.8-1.5-1.76-1.9-2.94-.27-.8-.32-1.16-.32-2.34 0-1.2.03-1.5.27-2.18.38-1.04.97-1.8 1.77-2.24.57-.32.75-.36 1.6-.36.8 0 1.02.05 1.7.38 1.47.72 2.78 2.5 3.35 4.58.1.53.2 1.17.2 2.2 0 1.65-.2 2.37-.9 3.2-.8.9-2.3 1.32-3.6.95zm18.96-1.48c.1-.1.14-.8.14-2.3v-2h1.92c1.07 0 2.07-.1 2.24-.2.3-.1.3-.1.27-1.3l-.03-1.1-2.17-.1-2.18-.1-.03-2.2-.03-2.2-.3-.1c-.1-.1-.6-.1-.9-.1-.4 0-.8 0-1 .1l-.3.1v4.3H32l-2.1.1v1.1c0 .9 0 1.1.2 1.2.15.1.8.1 2.2.1h2.06v2c0 1.43.03 2.1.1 2.2.1.1.5.12 1.16.12.6 0 1.06-.06 1.15-.15z"/></svg>