<svg xmlns="http://www.w3.org/2000/svg" width="48" height="48"><rect width="48" height="48" x="0" y="0" fill="#e6461a" ry="4.55"/><g transform="translate(1066.138 -336.144)"><path fill="#fff" d="M-1042.1 340.6c-10.8 0-19.53 8.76-19.53 19.54v19.54h4.63v-19.66c0-8.3 6.7-15 15-15 8.28 0 15 6.7 15 15 0 8.05-6.35 14.6-14.32 14.97h-.66l-.66-.05h1.3c-2.5-.04-4.63-.43-5.57-1v-6.45c1.4.93 3.1 1.45 4.9 1.45 4.94 0 8.95-4.03 8.95-8.98s-4.02-8.98-8.98-8.98c-4.95 0-8.96 4-8.96 8.95v19.65h8.9c10.8 0 19.54-8.74 19.54-19.53 0-10.77-8.75-19.52-19.54-19.52z"/></g></svg>