<svg xmlns="http://www.w3.org/2000/svg" width="48" height="48"><rect width="48" height="48" x="0" y="0" fill="#4099ff" ry="4.55"/><g transform="translate(-220.34 -16.99)"><path fill="#fff" d="M242.68 54.48c4.08-.7 7.86-2.82 10.48-5.9 2.88-3.37 4.54-7.67 4.6-11.9 0-.7.05-1.24.1-1.24.28 0 3.03-2.84 3.03-3.13 0 0-.2 0-.4.1-.5.2-2.5.8-2.9.8-.3 0-.3 0 .1-.3.67-.46 1.47-1.4 1.9-2.2.2-.35.36-.72.36-.8 0-.06-.3.04-.68.2-.87.45-2 .88-2.8 1.06-.58.13-.6.13-.93-.2-1.2-1.1-2.75-1.7-4.46-1.7-1.85 0-3.25.6-4.6 1.95-1.38 1.38-2 3.07-1.9 5l.1.96h-.44c-1.27 0-3.83-.6-5.54-1.3-2.46-1-4.34-2.24-6.27-4.15l-1.27-1.23-.16.3c-.9 1.9-.9 3.9 0 5.8.3.55.65 1.03 1.3 1.67l.9.9-.43-.08c-.8-.15-1.46-.3-1.95-.5l-.5-.25v.5c0 2.3 2.12 4.98 4.54 5.7.63.17.63.18.3.28-.2.05-.85.1-1.45.1-1.23 0-1.2-.03-.63 1.05.9 1.7 2.9 3.02 4.86 3.26l.7.1-.4.3c-.65.52-2.06 1.26-3.2 1.67-1.5.55-2.9.8-4.54.8h-1.35l.35.2c1.54.94 3.96 1.87 5.8 2.24 2.2.45 4.8.47 7.2.06z"/></g></svg>